# xmcd
#
# Track frame offsets:
# 150
# 19197
# 32718
# 51253
# 69557
# 87889
# 108146
# 128450
# 141059
# 156107
# 173288
# 193559
# 210051
# 225941
#
# Disc length: 3217 seconds
#
#
# Revision: 0
# Processed by: cddbd v1.5.2PL0 Copyright (c) Steve Scherf et al.
# Submitted via: FreeRIP 2.945 
#
DISCID=9e0c8f0e
DTITLE=Zeze de Camargo e Luciano - Os Dois Filhos de Francisco
DYEAR=1900
DGENRE=Country
TTITLE0=Como vai você
TTITLE1=Tristeza do Jeca
TTITLE2=O Lavrador
TTITLE3=Luar do Sertão
TTITLE4=Eu e meu pai
TTITLE5=Saudade Brejeira
TTITLE6=É o amor
TTITLE7=Calix Bento
TTITLE8=No dia em que eu sai de casa
TTITLE9=Pra mudar a minha  vida
TTITLE10=Dou a  vida por um beijo
TTITLE11=Toneladas de Paixão
TTITLE12=Colheita de milho
TTITLE13=Ta faltando alguem aqui
EXTD=
EXTT0=
EXTT1=
EXTT2=
EXTT3=
EXTT4=
EXTT5=
EXTT6=
EXTT7=
EXTT8=
EXTT9=
EXTT10=
EXTT11=
EXTT12=
EXTT13=
PLAYORDER=
